<?xml version="1.0" encoding="utf-8"?>
<!-- Generator: Adobe Illustrator 27.5.0, SVG Export Plug-In . SVG Version: 6.00 Build 0)  -->
<svg version="1.1" id="Layer_1" xmlns="http://www.w3.org/2000/svg" xmlns:xlink="http://www.w3.org/1999/xlink" x="0px" y="0px"
	 viewBox="0 0 1920 1419.4" style="enable-background:new 0 0 1920 1419.4;" xml:space="preserve">
<style type="text/css">
	.st0{opacity:0.7;}
	.st1{fill:url(#Path_36-2_00000098205562896754824080000014689544966068129694_);}
	.st2{fill:#E23BFF;}
</style>
<g class="st0">
	
		<linearGradient id="Path_36-2_00000041996882279442196780000002899500022967662487_" gradientUnits="userSpaceOnUse" x1="718.0947" y1="169.2057" x2="717.5442" y2="169.6185" gradientTransform="matrix(378 0 0 -314.4 -269517.3125 54633.9141)">
		<stop  offset="0" style="stop-color:#00C0F1"/>
		<stop  offset="1" style="stop-color:#003AFF"/>
	</linearGradient>
	<path id="Path_36-2" style="fill:url(#Path_36-2_00000041996882279442196780000002899500022967662487_);" d="M1865.5,1327.3v0.1
		l0,0c-52.4-0.1-94.8,42.4-94.8,94.7l0,0l0,0c0,52.4,42.5,94.7,94.8,94.7h70c12.1,0.1,24,3.2,34.5,9.3l24.6,14.2
		c16.1,9.3,36.2-2.5,36.2-21V1422l0,0c0-52.4-42.5-94.7-94.8-94.7L1865.5,1327.3L1865.5,1327.3z"/>
	<path id="Path_37-2" class="st2" d="M54.5,92.1V92l0,0c52.4,0.1,94.8-42.4,94.8-94.7l0,0c0-52.4-42.5-94.7-94.8-94.7h-70
		c-12.1-0.1-24-3.2-34.5-9.3L-74.6-121c-16.1-9.3-36.2,2.5-36.2,21v97.4l0,0c0,52.4,42.5,94.7,94.8,94.7H54.5L54.5,92.1z"/>
</g>
</svg>
