<?xml version="1.0" encoding="UTF-8"?><svg id="Layer_1" xmlns="http://www.w3.org/2000/svg" xmlns:xlink="http://www.w3.org/1999/xlink" viewBox="0 0 805 205"><defs><style>.cls-1{fill:#00c0f1;}.cls-2{fill:#fff;}.cls-3{fill:#e23bff;}.cls-4{fill:url(#linear-gradient);filter:url(#drop-shadow-1);}</style><linearGradient id="linear-gradient" x1="171.6" y1="77.1" x2="5.1" y2="182.5" gradientUnits="userSpaceOnUse"><stop offset="0" stop-color="#00c0f1"/><stop offset="1" stop-color="#003aff"/></linearGradient><filter id="drop-shadow-1" filterUnits="userSpaceOnUse"><feOffset dx="-5.4" dy="2.7"/><feGaussianBlur result="blur" stdDeviation="5.4"/><feFlood flood-color="#000" flood-opacity=".2"/><feComposite in2="blur" operator="in"/><feComposite in="SourceGraphic"/></filter></defs><path class="cls-4" d="m113.7,170.1h54.7c40.7,0,73.6-33,73.6-73.6V20.9c0-14.4-15.6-23.5-28.1-16.3l-19.1,11c-8.2,4.7-17.4,7.2-26.8,7.2h-54.3c-40.7,0-73.6,33-73.6,73.6h0c0,40.7,33,73.6,73.6,73.6Z"/><path class="cls-2" d="m113.9,108.7c-1,1.6-2.4,2.9-4.4,3.9-1.9,1-4.2,1.5-7,1.5-4.1,0-7.5-1-10.2-3-2.7-2-4.1-4.8-4.4-8.4h9.5c.1,1.4.6,2.5,1.5,3.3s1.9,1.2,3.2,1.2,2-.3,2.7-.9,1-1.5,1-2.5-.3-1.7-.9-2.3-1.4-1.1-2.3-1.5-2.1-.9-3.7-1.4c-2.3-.8-4.2-1.6-5.7-2.3-1.5-.7-2.7-1.9-3.8-3.3-1.1-1.5-1.6-3.4-1.6-5.7s.6-4.1,1.7-5.7c1.1-1.6,2.6-2.8,4.6-3.7,2-.8,4.2-1.3,6.7-1.3,4.1,0,7.3,1,9.7,2.9,2.4,1.9,3.8,4.6,4.1,8h-9.6c-.2-1.2-.6-2.2-1.3-2.9-.7-.7-1.7-1.1-2.9-1.1s-1.9.3-2.5.8c-.6.6-1,1.4-1,2.4s.3,1.6.9,2.2c.6.6,1.3,1.1,2.2,1.5.9.4,2.1.9,3.7,1.5,2.4.8,4.3,1.6,5.8,2.4,1.5.8,2.8,1.9,3.8,3.4,1.1,1.5,1.6,3.4,1.6,5.8s-.5,3.7-1.5,5.4Z"/><path class="cls-2" d="m161.6,77.2v36.5h-8.9v-22.8l-7.9,22.8h-7.7l-7.9-22.9v22.9h-8.9v-36.5h10.9l9.9,25.4,9.7-25.4h10.8Z"/><path class="cls-2" d="m192.6,108.7c-1,1.6-2.4,2.9-4.4,3.9-1.9,1-4.2,1.5-7,1.5-4.1,0-7.5-1-10.2-3-2.7-2-4.1-4.8-4.4-8.4h9.5c.1,1.4.6,2.5,1.5,3.3s1.9,1.2,3.2,1.2,2-.3,2.7-.9,1-1.5,1-2.5-.3-1.7-.9-2.3-1.4-1.1-2.3-1.5-2.1-.9-3.7-1.4c-2.3-.8-4.2-1.6-5.7-2.3-1.5-.7-2.7-1.9-3.8-3.3-1.1-1.5-1.6-3.4-1.6-5.7s.6-4.1,1.7-5.7c1.1-1.6,2.6-2.8,4.6-3.7,2-.8,4.2-1.3,6.7-1.3,4.1,0,7.3,1,9.7,2.9,2.4,1.9,3.8,4.6,4.1,8h-9.6c-.2-1.2-.6-2.2-1.3-2.9-.7-.7-1.7-1.1-2.9-1.1s-1.9.3-2.5.8c-.6.6-1,1.4-1,2.4s.3,1.6.9,2.2c.6.6,1.3,1.1,2.2,1.5.9.4,2.1.9,3.7,1.5,2.4.8,4.3,1.6,5.8,2.4,1.5.8,2.8,1.9,3.8,3.4,1.1,1.5,1.6,3.4,1.6,5.8s-.5,3.7-1.5,5.4Z"/><path class="cls-3" d="m26.8,96.4c0-16.9,4.8-32.7,13.2-46.1s-1.4-5.2-3.8-3.6C15.9,59.8,2.5,82.6,2.5,108.6v75.6c0,14.4,15.6,23.5,28.1,16.3l28.4-16.4c2-1.2,4.3-1.8,6.7-1.8h14.3c3,0,3.7-4.1,1-5.2-31.8-13-54.3-44.2-54.3-80.6Z"/><path class="cls-1" d="m271.9,191.8l10.2,11.2h-3.5l-9.3-10.4v10.4h-2.9v-22.3h2.9v10.3l9.3-10.3h3.5l-10.2,11Z"/><path class="cls-1" d="m287.8,183.1v7.6h8.5v2.2h-8.5v7.8h9.4v2.3h-12.3v-22.3h12.3v2.3h-9.4Z"/><path class="cls-1" d="m303.8,183.1v7.6h8.5v2.2h-8.5v7.8h9.4v2.3h-12.3v-22.3h12.3v2.3h-9.4Z"/><path class="cls-1" d="m319.7,194.1v9h-2.9v-22.3h7.1c2.5,0,4.5.6,5.7,1.8,1.3,1.2,1.9,2.8,1.9,4.9s-.7,3.7-2,4.9c-1.3,1.2-3.2,1.8-5.7,1.8h-4.2Zm7.7-3.5c.8-.7,1.2-1.8,1.2-3.1s-.4-2.4-1.2-3.2-2-1.1-3.8-1.1h-3.9v8.5h3.9c1.7,0,3-.4,3.8-1.1Z"/><path class="cls-1" d="m358.5,180.8l-7.3,13.8v8.4h-2.9v-8.4l-7.3-13.8h3.3l5.5,10.8,5.4-10.8h3.3Z"/><path class="cls-1" d="m377.2,182c1.7,1,3,2.3,3.9,4.1.9,1.7,1.4,3.7,1.4,5.9s-.5,4.2-1.4,5.9c-.9,1.7-2.2,3.1-3.9,4.1-1.7,1-3.5,1.5-5.6,1.5s-3.9-.5-5.6-1.5c-1.7-1-3-2.3-3.9-4.1-.9-1.7-1.4-3.7-1.4-5.9s.5-4.2,1.4-5.9c.9-1.7,2.3-3.1,3.9-4.1s3.5-1.5,5.6-1.5,3.9.5,5.6,1.5Zm-9.7,2.3c-1.2.7-2.2,1.7-2.8,3-.7,1.3-1,2.9-1,4.6s.3,3.3,1,4.6,1.6,2.3,2.8,3c1.2.7,2.6,1.1,4.1,1.1s2.9-.4,4.1-1.1c1.2-.7,2.2-1.7,2.8-3s1-2.8,1-4.6-.3-3.3-1-4.6c-.7-1.3-1.6-2.3-2.8-3-1.2-.7-2.6-1.1-4.1-1.1s-2.9.4-4.1,1.1Z"/><path class="cls-1" d="m389.1,180.8v13.4c0,2.2.5,3.8,1.5,4.8,1,1,2.3,1.6,4,1.6s3-.5,3.9-1.6c.9-1.1,1.4-2.7,1.4-4.8v-13.4h2.9v13.4c0,3-.8,5.3-2.3,6.8-1.5,1.5-3.5,2.3-6,2.3s-4.5-.8-6-2.3c-1.5-1.5-2.3-3.8-2.3-6.8v-13.4h2.9Z"/><path class="cls-1" d="m419.1,203.1l-5.8-9.1h-3.1v9.1h-2.9v-22.3h7.3c2.5,0,4.4.6,5.7,1.8s1.9,2.8,1.9,4.8-.5,3.3-1.5,4.4-2.5,1.8-4.4,2.1l6.1,9.2h-3.3Zm-8.9-11.2h4.2c3.3,0,4.9-1.4,4.9-4.3s-1.6-4.3-4.9-4.3h-4.2v8.6Z"/><path class="cls-1" d="m450.1,182.6c1.8,1.3,3,3.2,3.7,5.5h-3c-.6-1.5-1.5-2.6-2.7-3.5-1.3-.9-2.8-1.3-4.6-1.3s-2.8.4-3.9,1.1c-1.1.7-2.1,1.7-2.7,3-.7,1.3-1,2.9-1,4.6s.3,3.3,1,4.6c.7,1.3,1.6,2.3,2.7,3,1.1.7,2.4,1.1,3.9,1.1s3.4-.4,4.6-1.3c1.3-.9,2.2-2,2.7-3.5h3c-.7,2.3-1.9,4.1-3.7,5.5s-4,2-6.7,2-3.9-.5-5.5-1.4-2.8-2.3-3.7-4c-.9-1.7-1.3-3.7-1.3-5.9s.4-4.2,1.3-5.9c.9-1.7,2.1-3.1,3.7-4,1.6-1,3.4-1.4,5.5-1.4s5,.7,6.7,2Z"/><path class="cls-1" d="m460.3,180.8v13.4c0,2.2.5,3.8,1.5,4.8,1,1,2.3,1.6,4,1.6s3-.5,3.9-1.6c.9-1.1,1.4-2.7,1.4-4.8v-13.4h2.9v13.4c0,3-.8,5.3-2.3,6.8-1.5,1.5-3.5,2.3-6,2.3s-4.5-.8-6-2.3c-1.5-1.5-2.3-3.8-2.3-6.8v-13.4h2.9Z"/><path class="cls-1" d="m491.8,200.2c-.5.9-1.3,1.6-2.3,2.2s-2.3.9-3.8.9-2.8-.3-3.9-.8c-1.1-.5-2.1-1.3-2.7-2.2-.7-.9-1.1-2-1.2-3.2h3.1c0,.6.3,1.2.6,1.8.4.6.9,1.1,1.6,1.5.7.4,1.5.6,2.5.6s2.2-.3,2.9-1c.7-.7,1-1.5,1-2.6s-.2-1.6-.7-2.2-1.1-1-1.8-1.3c-.7-.3-1.6-.7-2.8-1.1-1.4-.5-2.5-.9-3.4-1.3-.9-.4-1.6-1-2.2-1.8-.6-.8-.9-1.9-.9-3.3s.3-2.2.8-3.1c.6-.9,1.4-1.6,2.4-2.1s2.3-.7,3.7-.7c2.2,0,3.9.5,5.2,1.6,1.3,1.1,2,2.4,2.2,4.1h-3.1c-.2-.9-.6-1.7-1.4-2.3s-1.7-1-3-1-2.1.3-2.8.9c-.7.6-1,1.4-1,2.5s.2,1.6.7,2.1c.5.5,1,1,1.7,1.3.7.3,1.6.6,2.8,1,1.4.5,2.6.9,3.5,1.3s1.6,1.1,2.2,1.9c.6.9.9,2,.9,3.4s-.3,2-.8,2.9Z"/><path class="cls-1" d="m510.1,180.8v2.3h-6.3v19.9h-2.9v-19.9h-6.3v-2.3h15.4Z"/><path class="cls-1" d="m528.7,182c1.7,1,3,2.3,3.9,4.1.9,1.7,1.4,3.7,1.4,5.9s-.5,4.2-1.4,5.9c-.9,1.7-2.2,3.1-3.9,4.1-1.7,1-3.5,1.5-5.6,1.5s-3.9-.5-5.6-1.5-3-2.3-3.9-4.1c-.9-1.7-1.4-3.7-1.4-5.9s.5-4.2,1.4-5.9c.9-1.7,2.3-3.1,3.9-4.1s3.5-1.5,5.6-1.5,3.9.5,5.6,1.5Zm-9.7,2.3c-1.2.7-2.2,1.7-2.8,3-.7,1.3-1,2.9-1,4.6s.3,3.3,1,4.6,1.6,2.3,2.8,3c1.2.7,2.6,1.1,4.1,1.1s2.9-.4,4.1-1.1c1.2-.7,2.2-1.7,2.8-3s1-2.8,1-4.6-.3-3.3-1-4.6c-.7-1.3-1.6-2.3-2.8-3-1.2-.7-2.6-1.1-4.1-1.1s-2.9.4-4.1,1.1Z"/><path class="cls-1" d="m560.2,181.2v21.9h-2.9v-17.5l-7,17.5h-2.6l-7-17.4v17.4h-2.9v-21.9h3.4l7.8,18.4,7.6-18.4h3.4Z"/><path class="cls-1" d="m567.7,183.1v7.6h8.5v2.2h-8.5v7.8h9.4v2.3h-12.3v-22.3h12.3v2.3h-9.4Z"/><path class="cls-1" d="m592.6,203.1l-5.8-9.1h-3.1v9.1h-2.9v-22.3h7.3c2.5,0,4.4.6,5.7,1.8s1.9,2.8,1.9,4.8-.5,3.3-1.5,4.4-2.5,1.8-4.4,2.1l6.1,9.2h-3.3Zm-8.9-11.2h4.2c3.3,0,4.9-1.4,4.9-4.3s-1.6-4.3-4.9-4.3h-4.2v8.6Z"/><path class="cls-1" d="m612.5,200.2c-.5.9-1.3,1.6-2.3,2.2s-2.3.9-3.8.9-2.8-.3-3.9-.8c-1.1-.5-2.1-1.3-2.7-2.2-.7-.9-1.1-2-1.2-3.2h3.1c0,.6.3,1.2.6,1.8.4.6.9,1.1,1.6,1.5.7.4,1.5.6,2.5.6s2.2-.3,2.9-1c.7-.7,1-1.5,1-2.6s-.2-1.6-.7-2.2-1.1-1-1.8-1.3c-.7-.3-1.6-.7-2.8-1.1-1.4-.5-2.5-.9-3.4-1.3-.9-.4-1.6-1-2.2-1.8-.6-.8-.9-1.9-.9-3.3s.3-2.2.8-3.1c.6-.9,1.4-1.6,2.4-2.1s2.3-.7,3.7-.7c2.2,0,3.9.5,5.2,1.6,1.3,1.1,2,2.4,2.2,4.1h-3.1c-.2-.9-.6-1.7-1.4-2.3s-1.7-1-3-1-2.1.3-2.8.9c-.7.6-1,1.4-1,2.5s.2,1.6.7,2.1c.5.5,1,1,1.7,1.3.7.3,1.6.6,2.8,1,1.4.5,2.6.9,3.5,1.3s1.6,1.1,2.2,1.9c.6.9.9,2,.9,3.4s-.3,2-.8,2.9Z"/><path class="cls-1" d="m627.8,180.8v22.3h-2.9v-22.3h2.9Z"/><path class="cls-1" d="m649.8,203.1h-2.9l-11.6-17.6v17.6h-2.9v-22.3h2.9l11.6,17.6v-17.6h2.9v22.3Z"/><path class="cls-1" d="m675.8,180.8v2.3h-6.3v19.9h-2.9v-19.9h-6.3v-2.3h15.4Z"/><path class="cls-1" d="m695.7,180.8v22.3h-2.9v-10.3h-11.3v10.3h-2.9v-22.3h2.9v9.6h11.3v-9.6h2.9Z"/><path class="cls-1" d="m703.2,183.1v7.6h8.5v2.2h-8.5v7.8h9.4v2.3h-12.3v-22.3h12.3v2.3h-9.4Z"/><path class="cls-1" d="m727,200.8h7.9v2.2h-10.8v-22.3h2.9v20Z"/><path class="cls-1" d="m753.6,182c1.7,1,3,2.3,3.9,4.1.9,1.7,1.4,3.7,1.4,5.9s-.5,4.2-1.4,5.9c-.9,1.7-2.2,3.1-3.9,4.1-1.7,1-3.5,1.5-5.6,1.5s-3.9-.5-5.6-1.5-3-2.3-3.9-4.1c-.9-1.7-1.4-3.7-1.4-5.9s.5-4.2,1.4-5.9c.9-1.7,2.3-3.1,3.9-4.1,1.7-1,3.5-1.5,5.6-1.5s3.9.5,5.6,1.5Zm-9.7,2.3c-1.2.7-2.2,1.7-2.8,3-.7,1.3-1,2.9-1,4.6s.3,3.3,1,4.6,1.6,2.3,2.8,3c1.2.7,2.6,1.1,4.1,1.1s2.9-.4,4.1-1.1c1.2-.7,2.2-1.7,2.8-3,.7-1.3,1-2.8,1-4.6s-.3-3.3-1-4.6c-.7-1.3-1.6-2.3-2.8-3-1.2-.7-2.6-1.1-4.1-1.1s-2.9.4-4.1,1.1Z"/><path class="cls-1" d="m778.6,182c1.7,1,3,2.3,3.9,4.1.9,1.7,1.4,3.7,1.4,5.9s-.5,4.2-1.4,5.9c-.9,1.7-2.2,3.1-3.9,4.1-1.7,1-3.5,1.5-5.6,1.5s-3.9-.5-5.6-1.5c-1.7-1-3-2.3-3.9-4.1-.9-1.7-1.4-3.7-1.4-5.9s.5-4.2,1.4-5.9c.9-1.7,2.3-3.1,3.9-4.1s3.5-1.5,5.6-1.5,3.9.5,5.6,1.5Zm-9.7,2.3c-1.2.7-2.2,1.7-2.8,3-.7,1.3-1,2.9-1,4.6s.3,3.3,1,4.6,1.6,2.3,2.8,3c1.2.7,2.6,1.1,4.1,1.1s2.9-.4,4.1-1.1c1.2-.7,2.2-1.7,2.8-3s1-2.8,1-4.6-.3-3.3-1-4.6c-.7-1.3-1.6-2.3-2.8-3-1.2-.7-2.6-1.1-4.1-1.1s-2.9.4-4.1,1.1Z"/><path class="cls-1" d="m790.7,194.1v9h-2.9v-22.3h7.1c2.5,0,4.5.6,5.7,1.8,1.3,1.2,1.9,2.8,1.9,4.9s-.7,3.7-2,4.9c-1.3,1.2-3.2,1.8-5.7,1.8h-4.2Zm7.7-3.5c.8-.7,1.2-1.8,1.2-3.1s-.4-2.4-1.2-3.2-2-1.1-3.8-1.1h-3.9v8.5h3.9c1.7,0,3-.4,3.8-1.1Z"/><path class="cls-2" d="m362.9,89c0,13.4-2.8,23.2-8.3,29.2-5.6,6-13.4,9.1-23.4,9.1s-17.6-3-23.2-9.1c-5.6-6-8.3-15.8-8.3-29.2V1.7h-33.2v88.2c0,21,5.7,37.2,17.1,48.5,11.4,11.3,27.2,16.9,47.4,16.9s35.8-5.6,47.2-16.9c11.4-11.3,17.1-27.4,17.1-48.5V1.7h-32.4v87.4Z"/><path class="cls-2" d="m497,49.2c-6.9-3.5-14.6-5.2-23.3-5.2s-17.7,2-25,5.9c-4.4,2.3-8,5.4-11.2,8.9v-13.2h-30.3v109.5h31.8v-54.2c0-6.9,1.1-12.5,3.4-16.7,2.2-4.2,5.4-7.4,9.4-9.6,4-2.2,8.5-3.3,13.5-3.3s12.5,2.1,16.4,6.3c3.9,4.2,5.8,10.7,5.8,19.5v57.8h31.8v-62.7c0-11.1-2-20.3-5.9-27.4-3.9-7.1-9.3-12.4-16.2-15.9Z"/><path class="cls-2" d="m589.2,1.7l-63.3,153.5h33.8l12.7-30.5h66l12.7,30.5h34.6L621.8,1.7h-32.6Zm-6.4,97.9l22.6-54.3,22.6,54.3h-45.2Z"/><path class="cls-2" d="m770.7,1.7v53.8c-2.5-2.8-5.4-5.1-8.6-7-6.9-4.1-15-6.1-24.2-6.1s-19.6,2.3-27.9,7c-8.3,4.7-14.8,11.2-19.5,19.6-4.8,8.4-7.1,18.3-7.1,29.7s2.4,21.3,7.1,29.7c4.8,8.4,11.3,15,19.5,19.7,8.3,4.7,17.6,7,27.9,7s17.9-2,24.7-6c3.6-2.1,6.7-4.8,9.5-8.2v14.2h30.3V1.7h-31.8Zm-11.8,113.4c-2.5,4.6-5.9,8.1-10.1,10.5-4.2,2.4-9,3.6-14.3,3.6s-9.8-1.2-14.1-3.6c-4.2-2.4-7.6-5.9-10.1-10.5-2.5-4.6-3.8-10-3.8-16.3s1.3-11.8,3.8-16.3c2.5-4.5,5.9-7.9,10.1-10.3,4.2-2.4,8.9-3.6,14.1-3.6s10,1.2,14.3,3.6c4.2,2.4,7.6,5.8,10.1,10.3,2.5,4.5,3.8,9.9,3.8,16.3s-1.3,11.7-3.8,16.3Z"/></svg>